<svg width="300" height="24" viewBox="0 0 300 24" fill="none" xmlns="http://www.w3.org/2000/svg">
<path d="M20.368 23V5.656L12.88 19H11.12L3.6 5.656V23H0.72V0.279999H3.76L11.984 15.032L20.24 0.279999H23.248V23H20.368ZM44.3048 23.16C42.7048 23.16 41.2541 22.84 39.9528 22.2C38.6514 21.56 37.5208 20.696 36.5608 19.608C35.6221 18.4987 34.8968 17.2613 34.3848 15.896C33.8728 14.5093 33.6168 13.0907 33.6168 11.64C33.6168 10.1253 33.8834 8.68533 34.4168 7.32C34.9714 5.93333 35.7288 4.70667 36.6888 3.64C37.6701 2.552 38.8114 1.69867 40.1128 1.08C41.4141 0.439999 42.8328 0.119999 44.3688 0.119999C45.9688 0.119999 47.4194 0.450666 48.7208 1.112C50.0221 1.77333 51.1421 2.65867 52.0808 3.768C53.0194 4.87733 53.7448 6.11467 54.2568 7.48C54.7688 8.84533 55.0248 10.2427 55.0248 11.672C55.0248 13.1867 54.7581 14.6373 54.2248 16.024C53.6914 17.3893 52.9341 18.616 51.9528 19.704C50.9928 20.7707 49.8621 21.6133 48.5608 22.232C47.2594 22.8507 45.8408 23.16 44.3048 23.16ZM36.5288 11.64C36.5288 12.792 36.7101 13.912 37.0728 15C37.4568 16.0667 37.9901 17.016 38.6728 17.848C39.3554 18.68 40.1768 19.3413 41.1368 19.832C42.0968 20.3227 43.1634 20.568 44.3368 20.568C45.5528 20.568 46.6408 20.312 47.6008 19.8C48.5608 19.288 49.3714 18.6053 50.0328 17.752C50.7154 16.8987 51.2274 15.9387 51.5688 14.872C51.9314 13.8053 52.1128 12.728 52.1128 11.64C52.1128 10.488 51.9208 9.37867 51.5368 8.312C51.1741 7.24533 50.6408 6.296 49.9368 5.464C49.2541 4.61067 48.4328 3.94933 47.4728 3.48C46.5341 2.98933 45.4888 2.744 44.3368 2.744C43.1208 2.744 42.0328 3 41.0728 3.512C40.1128 4.00267 39.2914 4.67467 38.6088 5.528C37.9474 6.38133 37.4354 7.34133 37.0728 8.408C36.7101 9.45333 36.5288 10.5307 36.5288 11.64ZM65.4263 23V0.311998H68.3063V12.856L80.0183 0.279999H83.1223L74.0023 10.296L83.6343 23H80.4023L72.1783 12.024L68.3063 16.056V23H65.4263ZM99.6132 0.279999H102.045L111.325 23H108.253L105.565 16.344H96.0292L93.3732 23H90.3012L99.6132 0.279999ZM104.925 14.104L100.829 3.608L96.6052 14.104H104.925ZM134.251 23V0.311998H137.131V12.856L148.843 0.279999H151.947L142.827 10.296L152.459 23H149.227L141.003 12.024L137.131 16.056V23H134.251ZM170.902 23.16C169.089 23.16 167.564 22.8507 166.326 22.232C165.089 21.592 164.097 20.7387 163.35 19.672C162.604 18.584 162.06 17.3573 161.718 15.992C161.377 14.6267 161.206 13.2187 161.206 11.768V0.279999H164.086V11.768C164.086 12.8773 164.193 13.9653 164.406 15.032C164.641 16.0773 165.014 17.016 165.526 17.848C166.038 18.68 166.732 19.3413 167.606 19.832C168.481 20.3227 169.569 20.568 170.87 20.568C172.193 20.568 173.292 20.3227 174.166 19.832C175.041 19.32 175.734 18.648 176.246 17.816C176.758 16.9627 177.121 16.0133 177.334 14.968C177.569 13.9227 177.686 12.856 177.686 11.768V0.279999H180.566V11.768C180.566 13.304 180.385 14.7653 180.022 16.152C179.681 17.5173 179.126 18.7227 178.358 19.768C177.59 20.8133 176.588 21.6453 175.35 22.264C174.134 22.8613 172.652 23.16 170.902 23.16ZM192.083 23V0.279999H201.811C202.813 0.279999 203.731 0.493332 204.563 0.919998C205.395 1.32533 206.12 1.88 206.739 2.584C207.357 3.26667 207.837 4.04533 208.179 4.92C208.52 5.77333 208.691 6.648 208.691 7.544C208.691 8.58933 208.488 9.58133 208.083 10.52C207.699 11.4587 207.144 12.2587 206.419 12.92C205.715 13.5813 204.883 14.04 203.923 14.296L209.427 23H206.163L200.979 14.84H194.963V23H192.083ZM194.963 12.28H201.843C202.632 12.28 203.315 12.0667 203.891 11.64C204.488 11.192 204.947 10.6053 205.267 9.88C205.608 9.15467 205.779 8.376 205.779 7.544C205.779 6.69067 205.587 5.912 205.203 5.208C204.819 4.48267 204.317 3.90667 203.699 3.48C203.08 3.05333 202.397 2.84 201.651 2.84H194.963V12.28ZM228.73 23.16C227.13 23.16 225.679 22.84 224.378 22.2C223.076 21.56 221.946 20.696 220.986 19.608C220.047 18.4987 219.322 17.2613 218.81 15.896C218.298 14.5093 218.042 13.0907 218.042 11.64C218.042 10.1253 218.308 8.68533 218.842 7.32C219.396 5.93333 220.154 4.70667 221.114 3.64C222.095 2.552 223.236 1.69867 224.538 1.08C225.839 0.439999 227.258 0.119999 228.794 0.119999C230.394 0.119999 231.844 0.450666 233.146 1.112C234.447 1.77333 235.567 2.65867 236.506 3.768C237.444 4.87733 238.17 6.11467 238.682 7.48C239.194 8.84533 239.45 10.2427 239.45 11.672C239.45 13.1867 239.183 14.6373 238.65 16.024C238.116 17.3893 237.359 18.616 236.378 19.704C235.418 20.7707 234.287 21.6133 232.986 22.232C231.684 22.8507 230.266 23.16 228.73 23.16ZM220.954 11.64C220.954 12.792 221.135 13.912 221.498 15C221.882 16.0667 222.415 17.016 223.098 17.848C223.78 18.68 224.602 19.3413 225.562 19.832C226.522 20.3227 227.588 20.568 228.762 20.568C229.978 20.568 231.066 20.312 232.026 19.8C232.986 19.288 233.796 18.6053 234.458 17.752C235.14 16.8987 235.652 15.9387 235.994 14.872C236.356 13.8053 236.538 12.728 236.538 11.64C236.538 10.488 236.346 9.37867 235.962 8.312C235.599 7.24533 235.066 6.296 234.362 5.464C233.679 4.61067 232.858 3.94933 231.898 3.48C230.959 2.98933 229.914 2.744 228.762 2.744C227.546 2.744 226.458 3 225.498 3.512C224.538 4.00267 223.716 4.67467 223.034 5.528C222.372 6.38133 221.86 7.34133 221.498 8.408C221.135 9.45333 220.954 10.5307 220.954 11.64ZM249.851 23V0.279999H257.723C260.155 0.279999 262.182 0.791999 263.803 1.816C265.446 2.81867 266.673 4.184 267.483 5.912C268.294 7.61867 268.699 9.51733 268.699 11.608C268.699 13.912 268.251 15.9173 267.355 17.624C266.459 19.3307 265.19 20.6533 263.547 21.592C261.905 22.5307 259.963 23 257.723 23H249.851ZM265.787 11.608C265.787 9.90133 265.467 8.38667 264.827 7.064C264.209 5.74133 263.302 4.70667 262.107 3.96C260.913 3.21333 259.451 2.84 257.723 2.84H252.731V20.44H257.723C259.473 20.44 260.945 20.056 262.139 19.288C263.334 18.4987 264.241 17.4427 264.859 16.12C265.478 14.776 265.787 13.272 265.787 11.608ZM288.374 23.16C286.774 23.16 285.323 22.84 284.022 22.2C282.72 21.56 281.59 20.696 280.63 19.608C279.691 18.4987 278.966 17.2613 278.454 15.896C277.942 14.5093 277.686 13.0907 277.686 11.64C277.686 10.1253 277.952 8.68533 278.486 7.32C279.04 5.93333 279.798 4.70667 280.758 3.64C281.739 2.552 282.88 1.69867 284.182 1.08C285.483 0.439999 286.902 0.119999 288.438 0.119999C290.038 0.119999 291.488 0.450666 292.79 1.112C294.091 1.77333 295.211 2.65867 296.15 3.768C297.088 4.87733 297.814 6.11467 298.326 7.48C298.838 8.84533 299.094 10.2427 299.094 11.672C299.094 13.1867 298.827 14.6373 298.294 16.024C297.76 17.3893 297.003 18.616 296.022 19.704C295.062 20.7707 293.931 21.6133 292.63 22.232C291.328 22.8507 289.91 23.16 288.374 23.16ZM280.598 11.64C280.598 12.792 280.779 13.912 281.141 15C281.526 16.0667 282.059 17.016 282.742 17.848C283.424 18.68 284.246 19.3413 285.206 19.832C286.166 20.3227 287.232 20.568 288.406 20.568C289.622 20.568 290.71 20.312 291.67 19.8C292.63 19.288 293.44 18.6053 294.102 17.752C294.784 16.8987 295.296 15.9387 295.638 14.872C296 13.8053 296.182 12.728 296.182 11.64C296.182 10.488 295.99 9.37867 295.606 8.312C295.243 7.24533 294.71 6.296 294.006 5.464C293.323 4.61067 292.502 3.94933 291.542 3.48C290.603 2.98933 289.558 2.744 288.406 2.744C287.19 2.744 286.102 3 285.142 3.512C284.182 4.00267 283.36 4.67467 282.678 5.528C282.016 6.38133 281.504 7.34133 281.141 8.408C280.779 9.45333 280.598 10.5307 280.598 11.64Z" fill="#3F3F3F"/>
</svg>
